<?xml version="1.0" encoding="iso-8859-1"?>
<!-- Uploaded to: SVG Repo, www.svgrepo.com, Generator: SVG Repo Mixer Tools -->
<svg fill="#000000" height="800px" width="800px" version="1.1" id="Layer_1" xmlns="http://www.w3.org/2000/svg" xmlns:xlink="http://www.w3.org/1999/xlink" 
	 viewBox="0 0 512 512" xml:space="preserve">
<g>
	<g>
		<path d="M66.633,154.644l7.503,29.477c40.214-10.236,82.724-10.236,122.937,0l7.503-29.477
			C159.455,143.159,111.754,143.159,66.633,154.644z"/>
	</g>
</g>
<g>
	<g>
		<path d="M66.633,204.94l7.503,29.477c40.213-10.236,82.723-10.236,122.936,0l7.503-29.477
			C159.455,193.455,111.754,193.455,66.633,204.94z"/>
	</g>
</g>
<g>
	<g>
		<path d="M66.633,255.238l7.503,29.477c40.213-10.237,82.723-10.237,122.936,0l7.503-29.477
			C159.455,243.752,111.754,243.752,66.633,255.238z"/>
	</g>
</g>
<g>
	<g>
		<path d="M66.633,305.535l7.503,29.477c40.213-10.236,82.723-10.236,122.936,0l7.503-29.477
			C159.455,294.049,111.754,294.049,66.633,305.535z"/>
	</g>
</g>
<g>
	<g>
		<path d="M503.721,109.069c-39.212-20.073-83.241-30.683-127.326-30.683c-41.508,0-82.961,9.403-120.395,27.257
			c-37.434-17.854-78.887-27.257-120.395-27.257c-44.086,0-88.115,10.61-127.327,30.683L0,113.307v320.306l22.139-11.333
			c34.941-17.887,74.178-27.342,113.466-27.342c39.288,0,78.523,9.455,113.465,27.341l1.553,0.795l7.228,1.807l5.081-2.601
			c34.941-17.887,74.177-27.341,113.465-27.341c39.288,0,78.523,9.455,113.465,27.342L512,433.614V113.307L503.721,109.069z
			 M240.792,385.09c-33.303-13.498-69.223-20.571-105.187-20.571c-35.962,0.001-71.884,7.061-105.187,20.558V132.102
			c32.803-15.265,68.973-23.299,105.188-23.299c36.217,0,72.381,8.052,105.186,23.32V385.09z M481.583,385.077
			c-33.303-13.498-69.224-20.557-105.186-20.557c-35.964,0-71.883,7.072-105.187,20.571V132.124
			c32.805-15.267,68.969-23.32,105.186-23.32c36.215,0,72.385,8.033,105.187,23.299V385.077z"/>
	</g>
</g>
<g>
	<g>
		<path d="M307.425,154.644l7.504,29.477c40.214-10.236,82.723-10.236,122.937,0l7.503-29.477
			C400.248,143.159,352.546,143.159,307.425,154.644z"/>
	</g>
</g>
<g>
	<g>
		<path d="M307.426,204.94l7.503,29.477c40.214-10.236,82.723-10.236,122.937,0l7.503-29.477
			C400.248,193.455,352.546,193.455,307.426,204.94z"/>
	</g>
</g>
<g>
	<g>
		<path d="M307.426,255.238l7.503,29.477c40.214-10.237,82.723-10.237,122.937,0l7.503-29.477
			C400.248,243.752,352.546,243.752,307.426,255.238z"/>
	</g>
</g>
<g>
	<g>
		<path d="M307.426,305.535l7.503,29.477c40.214-10.236,82.723-10.236,122.937,0l7.503-29.477
			C400.248,294.049,352.546,294.049,307.426,305.535z"/>
	</g>
</g>
</svg>